<svg xmlns="http://www.w3.org/2000/svg" viewBox="0 0 84 100" role="img" aria-labelledby="appleTitle">
  <title id="appleTitle">Apple</title>
  <path fill="#111111" d="M78.1 55.4c-.1-12.6 10.3-18.7 10.8-19-5.9-8.6-15-9.8-18.3-9.9-7.7-.8-15.2 4.6-19.1 4.6-4 0-10.1-4.5-16.6-4.4C27.2 27 20 31.6 16 38.8 7.8 53.3 13.9 74.8 21.8 86.5c3.9 5.7 8.6 12.2 14.8 11.9 6-0.2 8.2-3.9 15.4-3.9 7.2 0 9.2 3.9 15.4 3.8 6.4-0.1 10.5-5.8 14.3-11.6 4.6-6.6 6.4-13.1 6.5-13.4-.1 0-12.5-4.8-12.6-19.1zM66.2 18.3C69.5 14.3 71.7 8.7 71.1 3 66.3 3.2 60.4 6.2 57 10.2c-3 3.5-5.7 9.2-5 14.6 5.4.4 10.9-2.9 14.2-6.5z" transform="translate(-7, -3) scale(0.87)"/>
</svg>
