<svg width="101" height="20" viewBox="0 0 101 20" fill="none" xmlns="http://www.w3.org/2000/svg">
<path fill-rule="evenodd" clip-rule="evenodd" d="M74.4235 0H59.7158V19.9933H65.0794V2.69128H71.1619C72.613 2.69128 73.8064 3.86577 73.8064 5.30873V19.9933H79.1701V4.69128C79.1633 2.11409 77.0273 0 74.4235 0Z" fill="#0064FE"/>
<path fill-rule="evenodd" clip-rule="evenodd" d="M96.2602 0H86.2923C83.6884 0 81.5525 2.11409 81.5525 4.69128V15.302C81.5525 17.8792 83.6884 19.9933 86.2923 19.9933H96.2602C98.8708 19.9933 101 17.8792 101 15.302V4.69128C101.007 2.11409 98.8708 0 96.2602 0ZM92.9986 2.69128C94.4497 2.69128 95.6431 3.86577 95.6431 5.30872V14.6913C95.6431 16.1275 94.4565 17.3087 92.9986 17.3087H89.5607C88.1096 17.3087 86.9161 16.1342 86.9161 14.6913V5.30872C86.9161 3.87248 88.1028 2.69128 89.5607 2.69128H92.9986Z" fill="#0064FE"/>
<path fill-rule="evenodd" clip-rule="evenodd" d="M26.5718 0H38.3841V2.69128H29.8334C28.3823 2.69128 27.1956 3.86577 27.1956 5.30872V5.81879C27.1956 7.25503 28.3823 8.43624 29.8334 8.43624H38.3841V11.1275H27.1956V14.6913C27.1956 16.1275 28.3823 17.3087 29.8334 17.3087H38.3841V20H26.5718C23.9679 20 21.832 17.8859 21.832 15.3087V4.69128C21.832 2.11409 23.9679 0 26.5718 0Z" fill="#0064FE"/>
<path fill-rule="evenodd" clip-rule="evenodd" d="M45.5184 0H57.3307V2.69128H48.78C47.3289 2.69128 46.1355 3.86577 46.1355 5.30872V14.6913C46.1355 16.1275 47.3221 17.3087 48.78 17.3087H57.3307V20H45.5184C42.9078 20 40.7786 17.8859 40.7786 15.3087V4.69128C40.7786 2.11409 42.9078 0 45.5184 0Z" fill="#0064FE"/>
<path fill-rule="evenodd" clip-rule="evenodd" d="M0 0V2.69128H7.04532V19.9933H12.409V5.30872C12.409 3.87248 13.5956 2.69799 15.0467 2.69128H19.4543V0H0Z" fill="#0064FE"/>
</svg>
